<svg width="24" height="24" viewBox="0 0 24 24" fill="none" xmlns="http://www.w3.org/2000/svg">
<path d="M16 7H8C7.73478 7 7.48043 7.10536 7.29289 7.29289C7.10536 7.48043 7 7.73478 7 8V16C7 16.2652 7.10536 16.5196 7.29289 16.7071C7.48043 16.8946 7.73478 17 8 17H16C16.2652 17 16.5196 16.8946 16.7071 16.7071C16.8946 16.5196 17 16.2652 17 16V8C17 7.73478 16.8946 7.48043 16.7071 7.29289C16.5196 7.10536 16.2652 7 16 7ZM15 15H9V9H15V15ZM21 18.28V5.72C21.2705 5.56957 21.5023 5.35842 21.6773 5.10318C21.8523 4.84795 21.9657 4.55557 22.0086 4.24908C22.0514 3.94259 22.0225 3.63033 21.9242 3.33688C21.8259 3.04344 21.6609 2.77681 21.442 2.55797C21.2232 2.33914 20.9566 2.17408 20.6631 2.07577C20.3697 1.97747 20.0574 1.9486 19.7509 1.99145C19.4444 2.03429 19.1521 2.14768 18.8968 2.32269C18.6416 2.4977 18.4304 2.72955 18.28 3H5.72C5.56957 2.72955 5.35842 2.4977 5.10318 2.32269C4.84794 2.14768 4.55557 2.03429 4.24908 1.99145C3.94258 1.9486 3.63033 1.97747 3.33688 2.07577C3.04343 2.17408 2.7768 2.33914 2.55797 2.55797C2.33914 2.77681 2.17408 3.04344 2.07577 3.33688C1.97747 3.63033 1.9486 3.94259 1.99145 4.24908C2.03429 4.55557 2.14768 4.84795 2.32269 5.10318C2.49769 5.35842 2.72955 5.56957 3 5.72V18.28C2.72955 18.4304 2.49769 18.6416 2.32269 18.8968C2.14768 19.1521 2.03429 19.4444 1.99145 19.7509C1.9486 20.0574 1.97747 20.3697 2.07577 20.6631C2.17408 20.9566 2.33914 21.2232 2.55797 21.442C2.7768 21.6609 3.04343 21.8259 3.33688 21.9242C3.63033 22.0225 3.94258 22.0514 4.24908 22.0086C4.55557 21.9657 4.84794 21.8523 5.10318 21.6773C5.35842 21.5023 5.56957 21.2705 5.72 21H18.28C18.4304 21.2705 18.6416 21.5023 18.8968 21.6773C19.1521 21.8523 19.4444 21.9657 19.7509 22.0086C20.0574 22.0514 20.3697 22.0225 20.6631 21.9242C20.9566 21.8259 21.2232 21.6609 21.442 21.442C21.6609 21.2232 21.8259 20.9566 21.9242 20.6631C22.0225 20.3697 22.0514 20.0574 22.0086 19.7509C21.9657 19.4444 21.8523 19.1521 21.6773 18.8968C21.5023 18.6416 21.2705 18.4304 21 18.28ZM19 18.28C18.6993 18.4504 18.4504 18.6993 18.28 19H5.72C5.54957 18.6993 5.30073 18.4504 5 18.28V5.72C5.30073 5.54957 5.54957 5.30073 5.72 5H18.28C18.4504 5.30073 18.6993 5.54957 19 5.72V18.28Z" fill="#424866"/>
</svg>
